{
	"asset":{
		"generator":"Khronos glTF Blender I/O v4.3.47",
		"version":"2.0"
	},
	"scene":0,
	"scenes":[
		{
			"name":"Scene",
			"nodes":[
				0,
				1,
				2
			]
		}
	],
	"nodes":[
		{
			"mesh":0,
			"name":"Cube",
			"scale":[
				11.747652053833008,
				11.747652053833008,
				11.747652053833008
			],
			"translation":[
				5.557427883148193,
				1.8035876750946045,
				0.40539228916168213
			]
		},
		{
			"mesh":1,
			"name":"cup",
			"rotation":[
				0.0027656203601509333,
				0.8246105909347534,
				0.002528429264202714,
				0.5656883716583252
			],
			"scale":[
				0.5311305522918701,
				0.5311305522918701,
				0.5311306118965149
			],
			"translation":[
				6.405923843383789,
				2.3501782417297363,
				-1.1767635345458984
			]
		},
		{
			"mesh":2,
			"name":"nalbaki",
			"rotation":[
				-0.020111890509724617,
				-0.9169930815696716,
				-0.002460695104673505,
				0.39838841557502747
			],
			"scale":[
				1.5235551595687866,
				3.263577699661255,
				1.5235551595687866
			],
			"translation":[
				6.807986259460449,
				1.7628430128097534,
				2.311220169067383
			]
		}
	],
	"materials":[
		{
			"doubleSided":true,
			"name":"Material",
			"pbrMetallicRoughness":{
				"baseColorFactor":[
					0.6455346345901489,
					0.6455346345901489,
					0.6455346345901489,
					1
				],
				"metallicFactor":0.6605504751205444,
				"roughnessFactor":0.6743118762969971
			}
		},
		{
			"doubleSided":true,
			"name":"Material.016",
			"normalTexture":{
				"index":0
			},
			"pbrMetallicRoughness":{
				"baseColorTexture":{
					"index":1
				},
				"metallicFactor":0,
				"metallicRoughnessTexture":{
					"index":2
				}
			}
		},
		{
			"doubleSided":true,
			"name":"Material.015",
			"normalTexture":{
				"index":3
			},
			"pbrMetallicRoughness":{
				"baseColorTexture":{
					"index":4
				},
				"metallicFactor":0,
				"metallicRoughnessTexture":{
					"index":5
				}
			}
		}
	],
	"meshes":[
		{
			"name":"Cube",
			"primitives":[
				{
					"attributes":{
						"POSITION":0,
						"NORMAL":1,
						"TEXCOORD_0":2
					},
					"indices":3,
					"material":0
				}
			]
		},
		{
			"name":"NurbsPath.001",
			"primitives":[
				{
					"attributes":{
						"POSITION":4,
						"NORMAL":5,
						"TEXCOORD_0":6
					},
					"indices":7,
					"material":1
				}
			]
		},
		{
			"name":"Circle.005",
			"primitives":[
				{
					"attributes":{
						"POSITION":8,
						"NORMAL":9,
						"TEXCOORD_0":10
					},
					"indices":11,
					"material":1
				},
				{
					"attributes":{
						"POSITION":12,
						"NORMAL":13,
						"TEXCOORD_0":14
					},
					"indices":15,
					"material":2
				}
			]
		}
	],
	"textures":[
		{
			"sampler":0,
			"source":0
		},
		{
			"sampler":0,
			"source":1
		},
		{
			"sampler":0,
			"source":2
		},
		{
			"sampler":0,
			"source":3
		},
		{
			"sampler":0,
			"source":4
		},
		{
			"sampler":0,
			"source":5
		}
	],
	"images":[
		{
			"mimeType":"image/png",
			"name":"Marble09_2K_Normal",
			"uri": "textures/Marble09_2K_Normal.png"
		},
		{
			"mimeType":"image/png",
			"name":"Marble09_2K_BaseColor",
			"uri": "textures/Marble09_2K_BaseColor.png"
		},
		{
			"mimeType":"image/png",
			"name":"Marble09_2K_NormRough",
			"uri": "textures/Marble09_2K_NormRough.png"
		},
		{
			"mimeType":"image/png",
			"name":"Marble08_2K_Normal",
			"uri": "textures/Marble08_2K_Normal.png"
		},
		{
			"mimeType":"image/png",
			"name":"Marble08_2K_BaseColor",
			"uri": "textures/Marble08_2K_BaseColor.png"
		},
		{
			"mimeType":"image/png",
			"name":"Marble08_2K_NormRough",
			"uri": "textures/Marble08_2K_NormRough.png"
		}
	],
	"accessors":[
		{
			"bufferView":0,
			"componentType":5126,
			"count":190,
			"max":[
				1,
				1,
				1
			],
			"min":[
				-1,
				-1,
				-1
			],
			"type":"VEC3"
		},
		{
			"bufferView":1,
			"componentType":5126,
			"count":190,
			"type":"VEC3"
		},
		{
			"bufferView":2,
			"componentType":5126,
			"count":190,
			"type":"VEC2"
		},
		{
			"bufferView":3,
			"componentType":5123,
			"count":900,
			"type":"SCALAR"
		},
		{
			"bufferView":4,
			"componentType":5126,
			"count":69716,
			"max":[
				0.7870622873306274,
				1.0834870338439941,
				1.5826252698898315
			],
			"min":[
				-3.3378171920776367,
				-1.2744852304458618,
				-1.489543080329895
			],
			"type":"VEC3"
		},
		{
			"bufferView":5,
			"componentType":5126,
			"count":69716,
			"type":"VEC3"
		},
		{
			"bufferView":6,
			"componentType":5126,
			"count":69716,
			"type":"VEC2"
		},
		{
			"bufferView":7,
			"componentType":5125,
			"count":111444,
			"type":"SCALAR"
		},
		{
			"bufferView":8,
			"componentType":5126,
			"count":1871,
			"max":[
				0.9936935305595398,
				0.03969300910830498,
				0.9939508438110352
			],
			"min":[
				-0.9949582815170288,
				-0.06551766395568848,
				-0.9947009086608887
			],
			"type":"VEC3"
		},
		{
			"bufferView":9,
			"componentType":5126,
			"count":1871,
			"type":"VEC3"
		},
		{
			"bufferView":10,
			"componentType":5126,
			"count":1871,
			"type":"VEC2"
		},
		{
			"bufferView":11,
			"componentType":5123,
			"count":6048,
			"type":"SCALAR"
		},
		{
			"bufferView":12,
			"componentType":5126,
			"count":2581,
			"max":[
				0.9936935305595398,
				0.04212643951177597,
				0.9939508438110352
			],
			"min":[
				-0.9949582815170288,
				-0.04379892349243164,
				-0.9947009086608887
			],
			"type":"VEC3"
		},
		{
			"bufferView":13,
			"componentType":5126,
			"count":2581,
			"type":"VEC3"
		},
		{
			"bufferView":14,
			"componentType":5126,
			"count":2581,
			"type":"VEC2"
		},
		{
			"bufferView":15,
			"componentType":5123,
			"count":7290,
			"type":"SCALAR"
		}
	],
	"bufferViews":[
		{
			"buffer":0,
			"byteLength":2280,
			"byteOffset":0,
			"target":34962
		},
		{
			"buffer":0,
			"byteLength":2280,
			"byteOffset":2280,
			"target":34962
		},
		{
			"buffer":0,
			"byteLength":1520,
			"byteOffset":4560,
			"target":34962
		},
		{
			"buffer":0,
			"byteLength":1800,
			"byteOffset":6080,
			"target":34963
		},
		{
			"buffer":0,
			"byteLength":836592,
			"byteOffset":7880,
			"target":34962
		},
		{
			"buffer":0,
			"byteLength":836592,
			"byteOffset":844472,
			"target":34962
		},
		{
			"buffer":0,
			"byteLength":557728,
			"byteOffset":1681064,
			"target":34962
		},
		{
			"buffer":0,
			"byteLength":445776,
			"byteOffset":2238792,
			"target":34963
		},
		{
			"buffer":0,
			"byteLength":22452,
			"byteOffset":2684568,
			"target":34962
		},
		{
			"buffer":0,
			"byteLength":22452,
			"byteOffset":2707020,
			"target":34962
		},
		{
			"buffer":0,
			"byteLength":14968,
			"byteOffset":2729472,
			"target":34962
		},
		{
			"buffer":0,
			"byteLength":12096,
			"byteOffset":2744440,
			"target":34963
		},
		{
			"buffer":0,
			"byteLength":30972,
			"byteOffset":2756536,
			"target":34962
		},
		{
			"buffer":0,
			"byteLength":30972,
			"byteOffset":2787508,
			"target":34962
		},
		{
			"buffer":0,
			"byteLength":20648,
			"byteOffset":2818480,
			"target":34962
		},
		{
			"buffer":0,
			"byteLength":14580,
			"byteOffset":2839128,
			"target":34963
		}
	],
	"samplers":[
		{
			"magFilter":9729,
			"minFilter":9987
		}
	],
	"buffers":[
		{
			"byteLength":2853708,
			"uri": "cup_holder.bin"
		}
	]
}
